<?xml version="1.0" encoding="UTF-8"?>
<svg id="Lager_2" data-name="Lager 2" xmlns="http://www.w3.org/2000/svg" viewBox="0 0 219.63 94.06">
  <g id="Lager_1-2" data-name="Lager 1">
    <g id="Layer_1" data-name="Layer 1">
      <path d="M80.86,27.64s1-4.3,2-3.1c1,1.2,3.3,2.2,5.3-.7,2-2.9-1.8-6.4-4.3-7.6-2.5-1.2-9.2,4.9-9.2,4.9,0,0-5,5.5-3-8s-5.8-10.8-7.1-10.5c-1.3.3,1.4.6-.8,2.2-2.2,1.6-1.3,2.8-1.3,2.8,0,0,2.3,14.6,1.5,22.4-.9,7.8,0,8.9.7,10.3.4.8-.3,2.9-.9,5-1.5-5.6-4.8-11.5-5.2-12.2.2.3.8,1.2.6-.7-.3-2.2-3.8-2.9-7.7-9.8-1.2-2.1-2.1-3.3-2.8-3.9.2-1.6-1.3-2.2-1.3-2.2l-1,.7v-.7h-.7l-.6.9v-.9s-2.1,0-3.6,1-2.9,8.8-2.9,9.4v.4c-1.4,4.7-2.2,8.7-2.7,12h-.8c-4.5-.1-8.4,2.6-8.4,2.6,0,0,.6,9.2-3.3,12.2s-8.1-2.4-7.9-4c.3-1.7-1.4-.2-1.4-.2,0,0-.6-3.7.3-5,0,0-1,1.4-1.1-.5,0,0-1.5-16.4,5.2-25.4,6.7-9,4.9,9.1,4.9,9.1,0,0-1.4,6.7,3.2,6.1s6.9-.7,6.2-4.7c-.6-4,2.2-3.2.8-7.4-1.5-4.1-1.8-5.5-1.8-5.5,0,0,0,1.5-.5,0-.6-1.5-2.6-7.5-4.4-9s-4.4-4-6.9-2.6c-2.5,1.3-5.2,2.3-4.9,3.2.3.9-1.6,0-1.6,0,0,0-7.4,6.4-7.4,13.6,0,0-.6,0-1,.8-.3.8-9,16.2-2.9,29.7,0,0,.5-.7.7.7.2,1.3.3,2.2.2,2.5-.2.2,1-.5,1.1,0,.2.5-.4,2.4.4,3.3.9.9,3,3.2,4.4,3.2h2.5s-2.9,4.1-.3,5.1c2.6.9,11.8,3.2,13,4.4,1.3,1.2-10.5-3.1-11.2-2.2,0,0-7.2,3.5-4.1,8.7s13.8,6,16.3,1.8,9.3-7.3,5.3-11.1l-4-3.8s.8-1.5-.5-2.5l3.9-4.2-1,.3s4.1-4,6.6-8.9c.8,7.1,4.3,8.2,4.8,8.4.9.3.7,1,1.2,2.2.5,1.1,1.9.4,1.9.4,0,0-.7.4.6,1.1,1.3.7,7.9.5,11.5-.4,2.1-.6,4.3-1.5,6-3.5-.2,1.5,0,2.7.9,3.5,2.9,2.3,13.6-1.3,8.9-8.6,0,0,.8-11.1,2.2-13.5,1.4-2.5,12.5,13.1,13.5,14.5l.3-.5s0,1.1,1,2.5.7,1.6.7,1.6c0,0,.7-.4.7.2s.7.7.7.7c0,0-.7.2-.4.4.3.2,2.2,2.6,3.1,2.5,0,0-.9.2-.4.4s2,.6,1.6,1.3c0,0-.5-.6-.5-.3s.2.7,1.7,1.9c1.5,1.2.8,1.6.8,1.6,0,0,2.2,0,2.3.9,0,0-2.1.9,1.7,1.3,3.8.5,6.9.5,3.2-8-4.9-11.2-6.3-.4-22.2-32.2l-.4-.4ZM50.36,23.64c-.5-.8-1.6-1.7-2.4-2.3,0-.4.2-.8.3-1.2,1.1,1.3,2.2,3.5,2.2,3.5h-.1ZM47.46,23.64l.6,1.3h-.8c0-.4.2-.8.3-1.2l-.1-.1ZM47.66,22.54c0-.3.1-.5.2-.7.5.7.9,1.4.9,1.4-.2-.3-.7-.5-1-.7h-.1ZM47.16,54.44c-4.9.1-2.4-16.9-.4-27.5,2.6,3.5,7.5,14.8,7.5,14.8,0,0-.8.7-.2,1,.6.2,1,1.6.6,2.3s1.4,2.1,1.7,5-2.4,4.3-9.3,4.5l.1-.1Z"/>
      <path d="M180.26,16.24c4.5,2.7,10,2.2,9.5-1.3-.4-3.5-2.8-3.7-3.4-5-.6-1.3.6-3.2-2.4-4,0,0,1.1.9-.7,1.6-1.8.7-7.5,6-3,8.7h0Z"/>
      <path d="M216.56,45.04c-5.2-4-19.5-8.8-17-11.3,0,0-1-2.3,0-2.9,1.1-.6,2.1-1.8,1.7-2.2-.5-.4,2.5-5.3,4-4.5,1.5.8,2.5.7,2.4,1.7,0,0-1.2,5.7,0,6.3,0,0-3,3.9.8,5.1,3.9,1.2,10.8-.5,8.9-5-1.8-4.4,0-16.6-9.9-15.9s-6.7,1.8-6.7,1.8c0,0-8.4,5.6-8.6,8.7,0,1.2-1,2.2-1.8,3.4-1.6-6.4-4.2-10-5-10.6-1.4-1.1-3.6,1.9-4.8,2.2-1.2.3-6.9,0-7.5,8-.6,7.9,8.9,1,8.7,2s1.8.9,0,2.8l.5,1.6c0,.5.9.1.7,1.8s1.9,5.5,1.9,5.5c-.4,34.3-3.5,29.3-4.2,37.4s-1.6,4.8-2.9,4.4c-1.3-.4,1.8-1-.5-1.4s-2.8-3.4-2.8-3.4c-7.3-6.6-4.4-18.5-4.6-19.7v-.2c1.4.1,3.3.2,3.4-.2.2-.7,1.8.4,1.2,0s.3-.8,0-1.3.4-.6.4-.6h-.5c-.8-.4,0-6.6-.3-8.3s0-4.6,0-4.6c0,0,.3,6.7,1.1-1.9.9-8.6-7.2-21.8-10.2-25-3-3.2-23.6,2.7-21.9,11.1,1.7,8.4,11-.9,11-.9,6.5-4.3,6.5.4,6.5.4,8,8.1,2.9,13.4,2.9,13.4-.4-1.1-2.9-1.8-3.3-1.5-.3.3-1.3.4-3-.6-1.7-.9-1.2,1-2.4,1.4s-12,.3-11.2,11.6c-.2-.1-.3-.3-.5-.4-4.7-3.7-1.1-18.1-1.5-20.2-.5-2.1-.4-1,.2-1.6.6-.5-1.2-1-.5-1.5,0,0,4.2-19.6,2.6-24.2,0,0,1.2-1.5.6-3-.6-1.5,1.3-1.4.3-2.2-1-.8-.4.2-1.6,0-1.2-.2-2.3-.9-2.6-.3-.3.6-1.4,1.3-2.2,1.5-.8.3-3.9,4.8-4.3,15.7-.4,10.9,0,11.4-1.1,10.3-1.1-1-5.6-13.9-7.5-15.1,0,0-.7,1.4-1.6.1-.9-1.3-4.3-9.5-7.7-10-3.4-.4-3.2,1.8-3.2,1.8l-.7-.4s-1.9,1.6-3,3.8-4.6,5.3-3.5,7.1,2.5,2.7,3.5,2.7.6,21.8,2.1,30.2c0,0,2.2,4.1-.2,8.8-1.2,2.4-2.6,7.8,1.6,7.8s11,.8,9.6-5c0,0-.4-1.2.2-1.9s0-1.6-.7-2.7c-.7-1.1.3-2,0-3.1s-1.9-20.7-3.5-27.5-3.9-8.7-2.6-8.9c0,0,8.8,14.7,8.8,16.9s-.2,1.2.7,2.1c.9.9,1.8,2,1.9,2.9,0,1,1.6,5.5,2.4,4.6l.7-.7-.3,1.2h.3c.5.3,0,1,0,1,0,0,3.9,16,4.9,16.9,1,1-.3,3.1,6.1,2.4h0s5.9,1.9,6.6-2.4c5.4,3,14.8,1.5,18.8.5-.3.8-.9,2.6-2.1,6.6-2.2,7.6,7.5,19.4,7.4,21,0,1.6,2.6,6,10.6,5.6s6.3-15.6,6.3-15.6c.8-.4,1.2-.4,1.2-.4-1.1-.7.3-2.3.3-2.3-.4,0,0-1.6-.4-2.3-.3-.7.7-.7.7-.7-.3-.2-.4-1.6,0-2,.3-.5,1-2.4.6-3-.3-.6-.5-2.2-.4-3.2,0-.8,0-2.7.4-10.7.2.3.5.5.9.8,1.9,1.2,4.6,2.4,5.8,2.4s-1.5,1.3-.4,1c1-.3,4.9,1.5,6,1.7s4.5,3.1,7.5,2.6c3.1-.5,8.6-1.8,8.1-6.1s2.6-7-2.6-11.1v-.1ZM143.56,62.44h-.1.1ZM143.06,62.54h-.4.4ZM142.36,62.54h-.7.7ZM141.56,62.64h-.2.2ZM143.76,62.44c.2,0,.1,0,0,0h0ZM163.26,54.14c.2,1.5-3.4,1.9-9.3.9-5.9-1,2.1-5.8,2.4-5.7,1.3.8,4.3-.6,4.3-.6l.4,1.5.4-.9.3.6,1.1-.2c1.7.7.3,2.9.4,4.3v.1ZM168.56,61.14c0-1-.5-.9-1-.2-.3.4-.5.1-.6-.2.8-.2,1.3-.4,1.5-.5,0,0,.5,0,1.2.1-.4.2-1.2,1.6-1.1.8h0ZM191.66,50.84c0,.3-.2.6-.3.8v-1.1c.2,0,.5-.3.3.3ZM191.66,46.34v-1.6c.1-2.3,0-4.4,0-6.4.4.5.9,1.1,1.5,1.7,0,0,1.2-.7,1.7.5.1.3,1.1.8,2.6,1.3-2.6.9-4.9,2.5-5.8,4.5ZM200.16,50.34c-1-1.6,2.8-3.7,4.5-5.6,3.1,1.5,6.1,3.3,7.7,5.6,4.1,5.8-10.7,2.5-12.2,0Z"/>
      <path d="M41.96,80.64v-9.8h4.2c.4,0,.8,0,1.2.3.4.2.7.4.9.7.3.3.5.6.6,1s.2.8.2,1.1,0,.7-.1,1c0,.3-.2.6-.4.9s-.4.5-.6.7c-.3.2-.5.3-.8.4l2.4,3.8h-1.4l-2.2-3.5h-2.6v3.5h-1.2l-.2-.1ZM43.26,76.04h3c.3,0,.5,0,.7-.2s.4-.3.5-.4c.1-.2.3-.4.3-.7,0-.2.1-.5.1-.8s0-.5-.1-.8c0-.2-.2-.5-.4-.6-.2-.2-.4-.3-.6-.4-.2-.1-.4-.2-.7-.2h-2.9v4.1h.1Z"/>
      <path d="M53.86,80.74c-.5,0-1,0-1.5-.3-.5-.2-.8-.5-1.2-.8-.3-.3-.6-.7-.8-1.2s-.3-.9-.3-1.4,0-1,.3-1.4c.2-.5.4-.8.8-1.2.3-.3.7-.6,1.2-.8.5-.2.9-.3,1.5-.3s1,.1,1.5.3c.4.2.8.5,1.1.8s.6.7.7,1.2c.2.4.3.9.3,1.4s0,.2,0,.3v.2h-6c0,.4.1.7.2,1,.1.3.3.5.5.8.2.2.5.4.8.5s.6.2.9.2h.6c.2,0,.4-.1.6-.2.2-.1.3-.2.5-.4.1-.1.3-.3.3-.5l1.1.3c-.1.3-.3.5-.5.7s-.4.4-.7.6-.6.3-.9.4c-.3,0-.7.1-1,.1v-.3ZM56.26,76.54c0-.3-.1-.7-.3-.9-.1-.3-.3-.5-.5-.7s-.5-.4-.8-.5-.6-.2-.9-.2-.6,0-.9.2c-.3.1-.5.3-.8.5-.2.2-.4.5-.5.7-.1.3-.2.6-.2.9h4.9Z"/>
      <path d="M61.36,80.74c-.6,0-1.2,0-1.7-.3-.6-.2-1-.4-1.5-.8l.5-.8c.4.3.8.6,1.3.7s.9.2,1.3.2.9-.1,1.3-.3c.3-.2.5-.5.5-.9s0-.3-.1-.4c0-.1-.2-.2-.4-.3-.2,0-.4-.2-.6-.2-.3,0-.6-.2-.9-.2-.4-.1-.8-.2-1.1-.3-.3-.1-.6-.2-.8-.4-.2-.1-.4-.3-.4-.5s-.1-.4-.1-.7,0-.7.2-1c.1-.3.3-.5.6-.7.2-.2.5-.3.9-.4.3,0,.7-.1,1.1-.1s1.1,0,1.5.3c.5.2.9.4,1.2.7l-.6.7c-.3-.3-.6-.5-1-.6s-.8-.2-1.2-.2-.8,0-1.1.3c-.3.2-.5.5-.5.9v.4c0,.1.2.2.3.3.1,0,.3.2.5.2s.5.1.8.2c.5.1.9.2,1.3.3.4.1.6.3.9.4.2.2.4.3.5.6.1.2.2.5.2.8,0,.7-.3,1.2-.8,1.6-.5.4-1.2.6-2.1.6v-.1Z"/>
      <path d="M69.36,80.24s-.2,0-.3.1c-.1,0-.3.1-.4.2-.2,0-.3,0-.5.1h-.6c-.4,0-.8-.1-1.1-.4-.3-.2-.5-.6-.5-1.1v-4.9h-1v-1h1v-2.4h1.2v2.4h1.6v1h-1.6v4.5c0,.3.1.5.3.6.2.1.3.2.6.2s.5,0,.7-.1c.2,0,.3-.1.4-.2l.3,1h-.1Z"/>
      <path d="M72.36,80.74c-.3,0-.7,0-1-.2-.3-.1-.6-.3-.8-.5-.2-.2-.4-.4-.5-.7-.1-.3-.2-.6-.2-.9s0-.6.2-.9c.1-.3.4-.5.6-.7.3-.2.6-.3,1-.5.4-.1.8-.2,1.2-.2h1.1c.4,0,.7.2,1,.3v-.6c0-.6-.2-1.1-.5-1.4s-.8-.5-1.4-.5-1.5.3-2.3.8l-.4-.8c.9-.6,1.9-.9,2.8-.9s1.7.3,2.2.8.8,1.2.8,2.1v2.9c0,.3.1.4.4.4v1.1h-.6c-.2,0-.4,0-.6-.2-.1-.1-.2-.3-.3-.5v-.5c-.4.4-.8.8-1.3,1s-1,.3-1.6.3l.2.3ZM72.66,79.84c.4,0,.8,0,1.2-.2.4-.2.7-.4.8-.6.2-.2.3-.4.3-.5v-1.1c-.6-.2-1.2-.3-1.8-.3s-1.1.1-1.5.4-.6.6-.6,1,0,.4.1.6c0,.2.2.3.3.5.1.1.3.2.5.3.2,0,.4.1.6.1l.1-.2Z"/>
      <path d="M80.36,80.74c-.8,0-1.3-.3-1.7-.8-.4-.5-.6-1.3-.6-2.3v-4.3h1.2v4.1c0,1.5.5,2.2,1.5,2.2s1-.2,1.4-.5.8-.8,1-1.3v-4.5h1.2v5.7c0,.3.1.4.4.4v1.1h-.5c-.2,0-.4,0-.6-.2-.2-.1-.2-.3-.3-.5v-.8c-.4.5-.8,1-1.3,1.3s-1.1.4-1.7.4h0Z"/>
      <path d="M90.26,74.54c-.6,0-1.1.2-1.6.5s-.8.7-1,1.2v4.5h-1.2v-7.2h1.1v1.7c.2-.5.6-.9,1-1.2.4-.3.8-.5,1.3-.5h.4v1.1-.1Z"/>
      <path d="M93.36,80.74c-.3,0-.7,0-1-.2-.3-.1-.6-.3-.8-.5-.2-.2-.4-.4-.5-.7-.1-.3-.2-.6-.2-.9s0-.6.2-.9c.1-.3.4-.5.6-.7.3-.2.6-.3,1-.5.4-.1.8-.2,1.2-.2h1.1c.4,0,.7.2,1,.3v-.6c0-.6-.2-1.1-.5-1.4s-.8-.5-1.4-.5-1.5.3-2.3.8l-.4-.8c.9-.6,1.9-.9,2.8-.9s1.7.3,2.2.8.8,1.2.8,2.1v2.9c0,.3.1.4.4.4v1.1h-.6c-.2,0-.4,0-.6-.2-.1-.1-.2-.3-.3-.5v-.5c-.4.4-.8.8-1.3,1s-1,.3-1.6.3l.2.3ZM93.66,79.84c.4,0,.8,0,1.2-.2.4-.2.7-.4.8-.6.2-.2.3-.4.3-.5v-1.1c-.6-.2-1.2-.3-1.8-.3s-1.1.1-1.5.4-.6.6-.6,1,0,.4.1.6c0,.2.2.3.3.5.1.1.3.2.5.3.2,0,.4.1.6.1l.1-.2Z"/>
      <path d="M105.36,80.64h-1.2v-4c0-.8-.1-1.3-.4-1.7-.2-.4-.6-.5-1.1-.5s-.5,0-.7.1c-.2,0-.5.2-.7.4l-.6.6c-.2.2-.3.5-.4.8v4.4h-1.2v-7.2h1.1v1.5c.3-.5.7-.9,1.2-1.2.5-.3,1.1-.5,1.8-.5s.8,0,1,.2c.3.2.5.4.7.6.2.3.3.6.4,1s.1.8.1,1.2c0,0,0,4.3,0,4.3Z"/>
      <path d="M110.16,80.74c-.5,0-.9-.1-1.3-.3-.4-.2-.8-.5-1.1-.8-.3-.3-.5-.7-.7-1.2-.2-.4-.2-.9-.2-1.4s0-1,.2-1.4c.2-.5.4-.9.7-1.2s.6-.6,1.1-.8c.4-.2.9-.3,1.4-.3s1.1.1,1.6.4c.4.3.8.7,1.1,1.1v-1.4h1.1v7.1c0,.5,0,1-.3,1.4s-.5.7-.8,1-.7.5-1.2.6c-.4.1-.9.2-1.4.2-.8,0-1.5-.1-2-.4s-.9-.7-1.3-1.2l.7-.6c.3.4.7.7,1.1,1,.5.2.9.3,1.5.3s.6,0,.9-.1c.3,0,.6-.2.8-.4s.4-.4.5-.7c.1-.3.2-.6.2-1v-1.3c-.1.2-.3.4-.5.6s-.4.3-.6.5c-.2.1-.5.2-.7.3h-.8,0ZM110.56,79.74c.3,0,.5,0,.7-.1.2,0,.5-.2.7-.4.2-.2.4-.3.5-.5s.2-.4.3-.6v-2.1c-.1-.2-.2-.5-.4-.7-.2-.2-.3-.4-.5-.5-.2-.2-.4-.3-.7-.4-.2,0-.5-.1-.7-.1-.4,0-.7,0-1,.2s-.5.4-.7.6c-.2.3-.4.6-.5.9s-.2.7-.2,1,0,.7.2,1c.1.3.3.6.5.8.2.2.5.4.8.6.3.1.6.2,1,.2v.1Z"/>
      <path d="M126.16,80.64l-1-1.1c-.4.4-.8.7-1.3.9-.5.2-1,.3-1.6.3s-.9,0-1.3-.2c-.4-.1-.7-.3-1-.6-.3-.2-.5-.5-.7-.9-.2-.3-.2-.7-.2-1.1s0-.6.2-.9c.1-.3.2-.5.4-.8s.4-.4.6-.6.5-.4.7-.6c-.2-.2-.4-.5-.6-.7s-.3-.4-.4-.6c0-.2-.2-.4-.2-.5v-.5c0-.3,0-.6.2-.9.1-.3.3-.5.5-.7s.5-.4.8-.5.6-.2,1-.2.6,0,.9.1c.3,0,.5.2.8.4.2.2.4.4.5.6s.2.5.2.8,0,.5-.2.8c-.1.2-.2.5-.4.7l-.6.6c-.2.2-.5.4-.8.6l2.5,2.6c.2-.3.3-.7.4-1.1,0-.4.1-.8.1-1.3h1c0,.6,0,1.2-.2,1.7-.1.5-.3,1-.6,1.4l1.9,2h-1.6v.3ZM122.36,79.84c.4,0,.8,0,1.2-.2.4-.2.7-.4,1-.7l-2.8-2.9c-.4.3-.8.6-1.1,1-.3.3-.4.7-.4,1.2s0,.5.2.7c.1.2.3.4.5.6.2.1.4.3.7.3s.5.1.8.1l-.1-.1ZM120.86,72.84v.3s0,.2.2.3.2.3.3.4c.1.2.3.4.5.6.5-.3.9-.6,1.2-.9.3-.3.4-.6.4-.9s-.1-.6-.4-.8c-.2-.2-.5-.3-.9-.3s-.8.1-1,.4c-.3.2-.4.5-.4.9h.1Z"/>
      <path d="M140.06,78.14c0,.4,0,.7-.2,1s-.4.6-.6.8c-.3.2-.6.4-.9.5-.3.1-.7.2-1.1.2h-4.7v-9.8h4.9c.3,0,.6,0,.9.2.3.1.5.3.7.6.2.2.3.5.4.8.1.3.2.6.2.9,0,.5-.1.9-.4,1.4-.2.4-.6.7-1,.9.6.2,1,.5,1.3.9s.5,1,.5,1.6h0ZM133.76,71.94v3.3h3.1c.2,0,.4,0,.6-.1.2,0,.3-.2.5-.4.1-.1.2-.3.3-.5,0-.2.1-.4.1-.6s0-.4-.1-.6c0-.2-.2-.4-.3-.5s-.3-.3-.5-.3-.4-.1-.6-.1h-3.2l.1-.2ZM138.76,77.94c0-.2,0-.4-.1-.6,0-.2-.2-.4-.3-.5-.1-.2-.3-.3-.5-.4-.2,0-.4-.1-.6-.1h-3.5v3.4h3.4c.2,0,.4,0,.6-.1.2,0,.4-.2.5-.4.1-.2.3-.3.3-.5s.1-.4.1-.6l.1-.2Z"/>
      <path d="M143.46,80.74c-.3,0-.7,0-1-.2-.3-.1-.6-.3-.8-.5s-.4-.4-.5-.7c-.1-.3-.2-.6-.2-.9s0-.6.2-.9c.1-.3.4-.5.6-.7.3-.2.6-.3,1-.5s.8-.2,1.2-.2h1.1c.4,0,.7.2,1,.3v-.6c0-.6-.2-1.1-.5-1.4s-.8-.5-1.4-.5-1.5.3-2.3.8l-.4-.8c.9-.6,1.9-.9,2.8-.9s1.7.3,2.2.8.8,1.2.8,2.1v2.9c0,.3.1.4.4.4v1.1h-.6c-.2,0-.4,0-.6-.2-.1-.1-.2-.3-.3-.5v-.5c-.4.4-.8.8-1.3,1s-1,.3-1.6.3l.2.3ZM143.76,79.84c.4,0,.8,0,1.2-.2s.7-.4.8-.6c.2-.2.3-.4.3-.5v-1.1c-.6-.2-1.2-.3-1.8-.3s-1.1.1-1.5.4-.6.6-.6,1,0,.4.1.6.2.3.3.5c.1.1.3.2.5.3.2,0,.4.1.6.1l.1-.2Z"/>
      <path d="M153.06,74.54c-.6,0-1.1.2-1.6.5s-.8.7-1,1.2v4.5h-1.2v-7.2h1.1v1.7c.2-.5.6-.9,1-1.2.4-.3.8-.5,1.3-.5h.4v1.1-.1Z"/>
    </g>
  </g>
</svg>